#!OML:ASF F:\VICON\USERDATA\INSTALL\rory3\rory3.ASF
:FULLY-SPECIFIED
:DEGREES
379
root -4.87036 17.908 11.342 -192.928 80.2178 167.39
lowerback 12.6691 2.94391 -2.5187
upperback 2.51323 3.61726 -1.59899
thorax -4.49803 1.86537 -0.850566
lowerneck -14.2298 4.04829 -8.52062
upperneck 44.6391 12.6728 2.19414
head 18.7564 4.89939 5.28321
rclavicle -2.00276e-014 -7.35503e-015
rhumerus -33.8588 -19.5445 -72.8797
rradius 31.3391
rwrist 7.78251
rhand -13.9093 7.74331
rfingers 7.12502
rthumb 12.2166 -21.8799
lclavicle -2.00276e-014 -7.35503e-015
lhumerus -31.3794 5.70526 79.4436
lradius 42.4722
lwrist -1.37786
lhand -18.3438 26.2167
lfingers 7.12502
lthumb 7.93852 56.0477
rfemur -25.7885 -5.52967 14.3229
rtibia 31.2012
rfoot -7.53904 -5.45378
rtoes -12.847
lfemur 1.52053 -5.76151 -28.3756
ltibia 23.6872
lfoot -9.22553 -8.48045
ltoes -2.76269
380
root -4.98828 17.9302 11.3348 -193.099 80.6588 167.391
lowerback 12.6508 2.79463 -2.44522
upperback 2.49881 3.42894 -1.56487
thorax -4.49974 1.7708 -0.824202
lowerneck -14.1011 3.92451 -8.73991
upperneck 44.6049 12.4582 2.24617
head 18.6947 4.78494 5.29136
rclavicle -3.13086e-015 -5.56597e-015
rhumerus -33.7875 -19.2675 -73.261
rradius 31.4243
rwrist 7.84665
rhand -13.9518 7.78011
rfingers 7.12502
rthumb 12.1756 -21.8456
lclavicle -3.13086e-015 -5.56597e-015
lhumerus -31.7677 6.27615 79.0166
lradius 42.057
lwrist -1.55799
lhand -18.3217 26.3616
lfingers 7.12502
lthumb 7.95989 56.1918
rfemur -25.6787 -5.86069 14.5915
rtibia 32.9745
rfoot -7.85219 -6.23556
rtoes -12.3136
lfemur 1.25557 -5.97465 -28.4218
ltibia 23.76
lfoot -8.86423 -8.05518
ltoes -2.9398
381
root -5.10756 17.9516 11.3272 -194.316 81.2709 166.323
lowerback 12.6474 2.76982 -2.53868
upperback 2.4802 3.38273 -1.53587
thorax -4.52414 1.74859 -0.734526
lowerneck -13.9648 3.7534 -8.88484
upperneck 44.5649 12.2146 2.15684
head 18.6579 4.65205 5.21939
rclavicle -1.92324e-014 1.0138e-014
rhumerus -33.7798 -18.9668 -73.5856
rradius 31.634
rwrist 7.87477
rhand -13.7298 7.68568
rfingers 7.12502
rthumb 12.3896 -21.9272
lclavicle -1.92324e-014 1.0138e-014
lhumerus -32.1517 6.74944 78.6844
lradius 41.7288
lwrist -1.76503
lhand -18.7177 26.7589
lfingers 7.12502
lthumb 7.57761 56.6031
rfemur -25.5902 -6.09329 14.7248
rtibia 34.7386
rfoot -7.95538 -6.65977
rtoes -12.7421
lfemur 0.929136 -5.89559 -28.5615
ltibia 23.8523
lfoot -8.4345 -7.83786
ltoes -2.4595
382
root -5.22892 17.9707 11.3185 -195.795 81.9284 165.004
lowerback 12.632 2.72993 -2.61995
upperback 2.50371 3.32176 -1.49104
thorax -4.49766 1.71925 -0.630532
lowerneck -14.0476 3.5529 -9.10647
upperneck 44.7229 12.0064 2.1311
head 18.7928 4.50666 5.23201
rclavicle -8.34896e-015 2.00773e-014
rhumerus -33.6896 -18.7454 -73.7932
rradius 31.8141
rwrist 8.1124
rhand -13.1888 7.89545
rfingers 7.12502
rthumb 12.9112 -21.6851
lclavicle -8.34896e-015 2.00773e-014
lhumerus -32.5599 7.36468 78.3629
lradius 41.4227
lwrist -1.9417
lhand -18.5964 26.604
lfingers 7.12502
lthumb 7.69469 56.444
rfemur -25.4706 -6.27858 14.8266
rtibia 36.4976
rfoot -8.07338 -6.73561
rtoes -11.7987
lfemur 0.563091 -5.62334 -28.655
ltibia 23.9814
lfoot -8.00434 -7.79048
ltoes -1.57596
383
root -5.3519 17.9877 11.3093 -196.82 82.5317 164.134
lowerback 12.6443 2.57824 -2.64442
upperback 2.5292 3.12074 -1.40025
thorax -4.48171 1.61999 -0.488459
lowerneck -14.2107 3.43702 -9.40469
upperneck 44.8432 11.9304 2.13641
head 18.905 4.40097 5.29241
rclavicle -4.52235e-015 1.37161e-014
rhumerus -33.4577 -18.2535 -74.1266
rradius 31.9647
rwrist 8.2979
rhand -12.9077 8.16294
rfingers 7.12502
rthumb 13.1821 -21.4003
lclavicle -4.52235e-015 1.37161e-014
lhumerus -33.0031 8.12903 78.0084
lradius 41.0154
lwrist -1.81369
lhand -18.141 26.4542
lfingers 7.12502
lthumb 8.1343 56.2777
rfemur -25.3258 -6.49851 14.9662
rtibia 38.2517
rfoot -8.35763 -6.8009
rtoes -11.2599
lfemur 0.193412 -5.82282 -28.7512
ltibia 24.1523
lfoot -7.57264 -7.26996
ltoes -1.09825
384
root -5.473 18.0055 11.3033 -197.098 83.0747 164.059
lowerback 12.7055 2.4228 -2.61429
upperback 2.56202 2.92266 -1.26148
thorax -4.48396 1.5217 -0.329372
lowerneck -14.2676 3.3707 -9.71258
upperneck 44.876 11.898 2.15073
head 18.925 4.32438 5.3483
rclavicle 2.83268e-014 3.18055e-015
rhumerus -33.2426 -17.4483 -74.5518
rradius 32.1694
rwrist 7.95741
rhand -12.8135 8.21131
rfingers 7.12502
rthumb 13.2729 -21.3461
lclavicle 2.83268e-014 3.18055e-015
lhumerus -33.4847 9.04785 77.6927
lradius 40.5827
lwrist -1.96373
lhand -18.1148 26.4751
lfingers 7.12502
lthumb 8.15952 56.2975
rfemur -25.0603 -6.75694 15.1885
rtibia 39.974
rfoot -8.60143 -7.00849
rtoes -10.9653
lfemur -0.143125 -5.92396 -28.7027
ltibia 24.3807
lfoot -7.22107 -6.81046
ltoes -1.65291
385
root -5.59082 18.0214 11.3008 -197.929 83.572 163.41
lowerback 12.7389 2.40022 -2.65015
upperback 2.57874 2.8897 -1.19427
thorax -4.48942 1.50578 -0.234629
lowerneck -14.202 3.21848 -9.84286
upperneck 44.8422 11.632 2.1773
head 18.8985 4.19781 5.32865
rclavicle 5.6107e-014 -1.8487e-014
rhumerus -33.202 -17.276 -74.7742
rradius 32.373
rwrist 7.85788
rhand -12.7657 8.34785
rfingers 7.12502
rthumb 13.3191 -21.2065
lclavicle 5.6107e-014 -1.8487e-014
lhumerus -33.861 9.51804 77.4404
lradius 40.1244
lwrist -2.42422
lhand -18.3953 26.8245
lfingers 7.12502
lthumb 7.88884 56.6573
rfemur -24.722 -6.99927 15.3632
rtibia 41.6567
rfoot -8.64667 -7.14431
rtoes -11.6157
lfemur -0.530103 -5.57704 -28.6033
ltibia 24.6434
lfoot -6.92858 -6.87485
ltoes -1.9556
386
root -5.70971 18.0338 11.299 -198.162 84.0798 163.31
lowerback 12.7458 2.40586 -2.57689
upperback 2.55477 2.9058 -1.1514
thorax -4.51751 1.51223 -0.234557
lowerneck -14.0488 3.03159 -9.80762
upperneck 44.759 11.2518 2.15479
head 18.843 4.05295 5.23009
rclavicle -1.36416e-014 -1.53064e-014
rhumerus -33.2706 -17.2901 -74.9305
rradius 32.5595
rwrist 7.89429
rhand -12.6311 8.51987
rfingers 7.12502
rthumb 13.4488 -21.026
lclavicle -1.36416e-014 -1.53064e-014
lhumerus -34.1965 9.54952 77.223
lradius 39.6469
lwrist -2.51781
lhand -19.011 27.1036
lfingers 7.12502
lthumb 7.29455 56.9578
rfemur -24.3814 -7.09223 15.5795
rtibia 43.3104
rfoot -8.75576 -7.13069
rtoes -11.6654
lfemur -0.976789 -5.30418 -28.4109
ltibia 24.9124
lfoot -6.66393 -6.95033
ltoes -1.92422
387
root -5.82962 18.0508 11.2993 -197.631 84.5511 163.92
lowerback 12.7051 2.3083 -2.50191
upperback 2.52015 2.78892 -1.03369
thorax -4.53202 1.45266 -0.133241
lowerneck -13.8557 2.94777 -9.85361
upperneck 44.5627 11.0661 2.03704
head 18.6938 3.9656 5.11745
rclavicle 1.26477e-014 3.57812e-015
rhumerus -33.2318 -16.8094 -75.2199
rradius 32.7839
rwrist 7.66735
rhand -12.8681 8.32807
rfingers 7.12502
rthumb 13.2203 -21.2327
lclavicle 1.26477e-014 3.57812e-015
lhumerus -34.5442 9.85808 77.0204
lradius 39.0206
lwrist -2.44152
lhand -19.3563 27.0495
lfingers 7.12502
lthumb 6.96126 56.9151
rfemur -24.0579 -7.08141 15.7861
rtibia 44.9339
rfoot -9.07438 -6.86653
rtoes -10.4914
lfemur -1.5085 -5.27341 -28.1925
ltibia 25.214
lfoot -6.50242 -6.65803
ltoes -2.3951
